<svg width="178" height="72" viewBox="0 0 178 72" fill="none" xmlns="http://www.w3.org/2000/svg">
<path d="M16.787 1.84726C-2.17026 6.16487 0.0830973 21.9709 0.0830973 42.8035C0.0830973 48.9893 -0.350083 52.3483 2 57.5C3.40267 60.5749 5.47064 62.3638 7.72285 64.782C13.1381 70.5964 18.0327 69.0803 25.2036 69.0803H54.2088C83.6657 69.0803 112.849 72 142.26 72C147.94 72 161.114 71.5339 166.5 69.0803C170.787 67.1278 171.5 66.5 173.5 63.5C177 55.5 178 53 178 45C178 34 178 18.5 174.5 13.5C171 9 159.158 4.21833 150 3.38819C133 1.84726 116.942 3.73506 101.99 3.38819C92.3131 3.16372 82.5145 2.08358 72.7255 1.92837C54.3323 1.63672 34.5968 -2.20901 16.787 1.84726Z" fill="#A11973"/>
</svg>
